<svg xmlns="http://www.w3.org/2000/svg" width="80" height="80" viewBox="0 0 80 80">
    <g fill="#FFF" fill-rule="evenodd">
        <path d="M35.576 12.742c0 1.132-.9 2.354-2.353 2.354h-3.706v3.585h20.967v-3.585h-3.707a2.356 2.356 0 0 1-2.352-2.354v-1.754c0-2.274-2.071-4.345-4.345-4.345-2.4 0-4.504 2.03-4.504 4.345v1.754z"/>
        <path d="M22.002 46.81a2.357 2.357 0 0 1 3.305 0l1.21 1.207 4.087-4.229c1.001-.762 2.482-.763 3.392-.08.527.516.782 1.147.782 1.803 0 .656-.255 1.287-.7 1.732l-5.908 5.748a2.324 2.324 0 0 1-1.645.693 2.334 2.334 0 0 1-1.653-.7l-2.87-2.87a2.33 2.33 0 0 1-.7-1.653c0-.613.25-1.2.7-1.652m0-13.556a2.316 2.316 0 0 1 3.305 0l1.218 1.22 4.088-4.088c.89-.89 2.574-.89 3.465 0 .451.45.7 1.038.7 1.652 0 .613-.248 1.201-.7 1.652l-5.908 5.748a2.316 2.316 0 0 1-1.642.687 2.336 2.336 0 0 1-1.655-.694l-2.87-2.87a2.314 2.314 0 0 1 0-3.307m17.12 25.133h17.221a2.356 2.356 0 0 1 2.353 2.354c0 1.384-.967 2.352-2.353 2.352H39.122c-1.385 0-2.352-.968-2.352-2.352a2.356 2.356 0 0 1 2.352-2.354m0-13.553h17.222a2.354 2.354 0 0 1 2.353 2.352c0 1.387-.967 2.353-2.353 2.353H39.122c-1.385 0-2.352-.966-2.352-2.353a2.354 2.354 0 0 1 2.352-2.352m0-13.395h17.222c1.386 0 2.353.967 2.353 2.351a2.356 2.356 0 0 1-2.353 2.354H39.122a2.356 2.356 0 0 1-2.352-2.354c0-1.384.967-2.35 2.352-2.35m-5.044 29.2l-5.908 5.747c-.518.52-1.16.782-1.784.782a2.117 2.117 0 0 1-1.513-.63l-2.847-3.004c-.416-.34-.677-.864-.718-1.45a2.44 2.44 0 0 1 .695-1.88 2.355 2.355 0 0 1 3.304 0l1.218 1.217 4.088-4.088c.89-.89 2.574-.89 3.465 0 .451.451.7 1.04.7 1.652 0 .613-.248 1.201-.7 1.653M19.19 73.375h41.62c.217 0 .357-.14.357-.357V17.844c0-.22-.137-.358-.358-.358h-5.62v2.431c0 2.01-1.459 3.47-3.469 3.47H28.28a3.432 3.432 0 0 1-3.47-3.47v-2.43h-5.62c-.22 0-.358.136-.358.357v55.174c0 .217.14.357.358.357"/>
    </g>
</svg>
