<svg xmlns="http://www.w3.org/2000/svg" width="80" height="80" viewBox="0 0 80 80">
    <path fill="#FFF" fill-rule="evenodd" d="M65.424 65.763a4.181 4.181 0 0 1-.182.593c-.09.16-.182.32-.294.466-.008.014-.016.022-.023.035-.083.084-.16.167-.243.244-.06.07-.151.14-.234.208-.19.12-.38.217-.57.308a4.888 4.888 0 0 1-.718.174c-.387.02-.78.013-1.174.013H29.732c-1.477 0-2.955.007-4.432-.006a5.85 5.85 0 0 1-.347-.013 4.798 4.798 0 0 1-.69-.175 5.763 5.763 0 0 1-.53-.279c-.015-.007-.023-.014-.038-.022-.091-.076-.182-.145-.265-.222-.083-.076-.16-.16-.235-.236l.114.145c.12.175-.402-.43-.144-.174.007.007.015.022.023.029a4.587 4.587 0 0 1-.326-.524 4.343 4.343 0 0 1-.212-.759c.007.138.022.272.038.404-.031-.188-.038-.37-.068-.558l.022.147a16.869 16.869 0 0 1-.022-1.526h30.844c.174 0 .349.014.515.014 1.628-.014 3.166-.572 4.363-1.59 1.409-1.198 2-2.863 2-4.593V18.68c.932 0 1.894-.063 2.825.006.235.042.462.098.69.174.182.084.356.175.522.279.015.007.023.015.038.028.09.07.182.147.265.223.084.077.16.16.235.238 0 0 0 .006.008.006.12.167.234.342.325.524.068.173.121.347.166.53.046.486.008.988.008 1.477v37.953c0 1.756.023 3.506.015 5.255 0 .133 0 .258-.015.39zM17.205 50.417c-.034-.73.268-1.44.851-2.002a3.344 3.344 0 0 1 2.291-.923l.18.015c.662-.022 1.47-.015 2.279-.014l1.192.005h26.08c1.686 0 3.066 1.254 3.14 2.856.036.73-.267 1.44-.85 2.002a3.345 3.345 0 0 1-2.29.922H20.347c-1.687 0-3.067-1.256-3.142-2.861zm3.962-21.82c0-1.553 1.363-2.823 3.105-2.892a3.09 3.09 0 0 1 2.174.785c.638.562 1.004 1.33 1.004 2.106V42.13c0 1.552-1.364 2.822-3.104 2.891l-.121.001c-.751 0-1.476-.276-2.054-.785-.638-.563-1.004-1.33-1.004-2.107V28.596zm10.907-5.8c0-1.551 1.364-2.821 3.104-2.89a3.178 3.178 0 0 1 2.176.784c.638.562 1.004 1.33 1.004 2.107v19.34c0 1.55-1.364 2.82-3.105 2.89l-.125.001a3.1 3.1 0 0 1-2.048-.782c-.64-.563-1.006-1.332-1.006-2.11v-19.34zM42.982 33.51c0-1.55 1.363-2.819 3.103-2.89a3.125 3.125 0 0 1 2.176.784c.64.562 1.005 1.329 1.005 2.106v8.628c0 1.551-1.364 2.821-3.105 2.89-.042.002-.083.002-.125.002a3.1 3.1 0 0 1-2.048-.782c-.64-.563-1.006-1.332-1.006-2.11V33.51zm25.162-16.851c-1.326-1.409-3.363-2.154-5.363-2.162h-2.416v-.347c.022-.091.03-.19.03-.286-.038-3.22-2.902-5.84-6.401-5.862-.613-.007-1.22.015-1.833.015H18.233c-.598 0-1.204-.022-1.803-.015-3.5.028-6.385 2.65-6.415 5.868C10 15.292 10 16.7 10 18.121v39.808c0 1.834.749 3.617 2.333 4.788 1.174.872 2.583 1.338 4.105 1.352.197 0 .394-.014.591-.014h1.068c-.008 1.08-.038 2.181.31 3.22.705 2.12 2.53 3.798 4.834 4.446.742.21 1.537.279 2.31.279h36.147c.34 0 .689-.006 1.03-.006 1.288 0 2.544-.28 3.665-.865a6.628 6.628 0 0 0 3.591-5.373c.023-.222 0-.453 0-.676V21.703c0-.202.016-.404.016-.599-.016-1.666-.675-3.192-1.856-4.446z"/>
</svg>
