<svg xmlns="http://www.w3.org/2000/svg" width="24" height="24" viewBox="0 0 24 24">
    <g fill="#FFF" fill-rule="evenodd">
        <path d="M12.044 22.448c-5.884 0-10.67-4.787-10.67-10.671 0-5.884 4.786-10.671 10.67-10.671s10.671 4.787 10.671 10.67c0 5.885-4.787 10.672-10.67 10.672m0-22.104C5.74.344.61 5.473.61 11.777c0 6.305 5.13 11.434 11.433 11.434 6.304 0 11.433-5.13 11.433-11.434 0-6.304-5.129-11.433-11.433-11.433"/>
        <path d="M12.044 2.63a.38.38 0 0 0-.38.381v8.765H5.945a.38.38 0 1 0 0 .763h6.098c.21 0 .381-.17.381-.382V3.011a.38.38 0 0 0-.38-.38"/>
    </g>
</svg>
