<svg xmlns="http://www.w3.org/2000/svg" width="80" height="80" viewBox="0 0 80 80">
    <g fill="#FFF" fill-rule="evenodd">
        <path d="M38.809 47.932c.22-.11.442-.166.664-.276 2.378-1.05 4.48-2.71 6.084-4.703V28.85l-6.693 4.204v14.88h-.055zM19.892 42.954c1.77 2.157 4.093 3.928 6.748 4.979V26.416l-6.748 4.204v12.334zM29.35 48.762c.608.11 1.272.221 1.936.276 1.66.166 3.263.055 4.758-.276V19.723l-6.748 4.203v24.836h.055z"/>
        <path d="M52.194 34.27c-.608 7.301-5.199 13.33-11.449 16.151-2.932 1.328-6.25 1.936-9.68 1.66a19.454 19.454 0 0 1-14.215-8.076 19.23 19.23 0 0 1-3.596-13.109c.885-10.73 10.4-18.695 21.13-17.811 10.73.941 18.75 10.455 17.81 21.185M72.66 65.024L58.057 50.476l-2.102 2.103-.498.497-2.378-2.434c.553-.663 1.106-1.271 1.55-1.935.275-.388.552-.775.773-1.162.111-.166.221-.387.332-.553.111-.221.277-.443.387-.664 1.991-3.374 3.264-7.246 3.651-11.394 1.272-14.935-9.846-28.099-24.725-29.371-14.934-1.272-28.098 9.79-29.37 24.725-.277 2.986 0 5.863.663 8.628.111.387.222.83.332 1.217.055.221.111.443.221.663 0 .056.056.112.056.166.055.222.166.444.221.609a26.564 26.564 0 0 0 3.927 7.412l.055-.056c3.927 5.2 9.735 8.961 16.54 10.288-.057 0-.167.056-.278.056 1.66.332 3.43.498 5.144.553 5.587.055 10.897-1.604 15.432-4.701a24.688 24.688 0 0 0 2.38-1.826l2.377 2.434-2.93 2.876 14.656 14.548c1.106 1.105 2.545 1.714 4.093 1.714a6.051 6.051 0 0 0 4.15-1.66c1.105-1.106 1.714-2.543 1.714-4.092a6.028 6.028 0 0 0-1.77-4.093"/>
    </g>
</svg>
