<svg xmlns="http://www.w3.org/2000/svg" width="80" height="80" viewBox="0 0 80 80">
    <g fill="#FFF" fill-rule="evenodd">
        <path d="M55.76 25.319l3.717 8.405a5.377 5.377 0 0 0 .878-3.837 5.391 5.391 0 0 0-4.595-4.568M23.11 33.622l7.985 18.422c2.295-.613 5.273-1.334 8.782-1.86 4.953-.742 12.523-1.348 20.461-.019.166.034.66-.121.821-.416a.662.662 0 0 0 .016-.616l-15.424-35.49c-.169-.427-.51-.467-.766-.428-.19.029-.498.18-.79.514-6.661 10.11-16.56 17.059-21.086 19.893M28.717 70.944l.036.025c.26.189.648.17.901.074l5.84-2.52c.06-.026.112-.053.155-.08-3.998-2.993-6.35-6.754-7.671-9.629l-6.975 3.077c1.107 2.414 3.41 6.233 7.714 9.053M2.488 46.843c-.888 2.287-.865 4.706.067 6.809 2.035 4.682 8.28 6.914 13.821 4.393l9.598-4.226-7.719-17.578-9.474 4.246c-2.929 1.28-5.22 3.596-6.293 6.356M65.981 27.124c-.511.076-.989-.202-1.236-.688a1.11 1.11 0 0 1 .564-1.48l9.907-4.279a1.108 1.108 0 0 1 1.48.565c.26.572.008 1.22-.563 1.48L66.224 27c-.072.098-.157.11-.243.124M77.258 37.825c-.17.026-.354-.033-.622-.081l-10.013-3.998c-.562-.264-.835-.922-.656-1.472.265-.563.922-.836 1.471-.656l10.012 3.997c.563.265.835.922.656 1.472-.106.453-.507.687-.848.738M62.104 21.595c-.17.026-.354-.033-.538-.093-.562-.265-.822-.837-.655-1.473l3.894-10.096c.265-.562.836-.823 1.472-.656.562.264.822.836.656 1.472l-3.895 10.096c-.193.466-.508.687-.934.75"/>
    </g>
</svg>
