<svg xmlns="http://www.w3.org/2000/svg" width="80" height="80" viewBox="0 0 80 80">
    <g fill="#FFF" fill-rule="evenodd">
        <path d="M35.306 60.418h5.808a42.224 42.224 0 0 1-.33-5.236c0-1.733.111-3.492.33-5.239h-5.808a18.355 18.355 0 0 0-.766 5.24c0 1.77.258 3.53.766 5.235M50.98 49.944h-5.783a39.032 39.032 0 0 0-.348 5.238c0 1.783.118 3.544.348 5.237h5.782V49.944zM55.045 37.415v8.464h4.96c-1.102-4.042-2.934-7.152-4.96-8.464M46.019 45.878h4.96v-8.464c-2.025 1.312-3.857 4.422-4.96 8.464M50.98 72.948v-8.463h-4.961c1.102 4.042 2.934 7.15 4.96 8.463M60.006 64.485h-4.961v8.463c2.027-1.312 3.859-4.421 4.96-8.463M60.828 49.944h-5.783v10.475h5.783c.23-1.693.347-3.452.347-5.237 0-1.785-.117-3.545-.347-5.238M70.718 49.944H64.91c.219 1.749.33 3.507.33 5.238a42.24 42.24 0 0 1-.33 5.237h5.808c.508-1.706.766-3.466.766-5.237 0-1.77-.258-3.53-.766-5.238M61.495 38.819c1.143 2 2.061 4.4 2.697 7.06h4.75a18.516 18.516 0 0 0-7.447-7.06M37.083 45.878h4.75c.635-2.658 1.554-5.059 2.697-7.06a18.516 18.516 0 0 0-7.447 7.06M44.53 71.545c-1.143-2.003-2.062-4.403-2.697-7.06h-4.75a18.538 18.538 0 0 0 7.447 7.06M68.942 64.485h-4.75c-.635 2.657-1.554 5.058-2.697 7.06a18.538 18.538 0 0 0 7.447-7.06M4.97 29.073c0 3.846 3.129 6.973 6.972 6.973h8.443V18.792h-8.443a6.98 6.98 0 0 0-6.971 6.97v3.31zM53.137 32.763c1.09 0 2.184.08 3.264.24V7.99a.888.888 0 0 0-.38-.749.9.9 0 0 0-.827-.12L24.45 17.906V36.83l11.654 3.79a22.316 22.316 0 0 1 17.033-7.857M7.56 39.194v8.814c0 2.757 2.236 5 4.986 5h2.265c2.757 0 5-2.243 5-5V40.11h-7.869c-1.504 0-3.002-.314-4.382-.916M63.782 19.73l5.243-5.236a1.472 1.472 0 1 0-2.08-2.082l-5.243 5.236a1.471 1.471 0 1 0 2.08 2.082M73.558 26.035h-7.415a1.471 1.471 0 0 0 0 2.943h7.415a1.47 1.47 0 1 0 0-2.943"/>
    </g>
</svg>
