<svg xmlns="http://www.w3.org/2000/svg" width="80" height="80" viewBox="0 0 80 80">
    <path fill="#FFF" fill-rule="evenodd" d="M68.892 18.572c0 8.022-4.856 14.987-11.819 18.199 2.425-5.995 3.251-12.757 3.532-19.613h8.287v1.414zM45.307 28.647l3.318 9.976-8.626-6.186-8.625 6.186 3.32-9.976-8.65-6.152 10.676.02L40 12.525l3.28 9.988 10.676-.02-8.65 6.153zm-34.2-10.075v-1.414h8.288c.28 6.856 1.107 13.62 3.532 19.613-6.963-3.212-11.82-10.177-11.82-18.2zm49.623-6.434c.019-1.72.02-3.437.02-5.138h-41.5c0 1.7.002 3.417.021 5.138H6v6.434c0 12.082 8.787 22.233 20.392 24.59 2.058 2.9 4.707 5.498 8.122 7.68v5.639c0 2.718-2.592 4.401-3.104 6.787h-6.302V73h29.784v-9.732h-6.3c-.514-2.386-3.107-4.07-3.107-6.787v-5.639c3.416-2.182 6.064-4.778 8.121-7.679C65.212 40.808 74 30.653 74 18.572v-6.434H60.73z"/>
</svg>
