<svg xmlns="http://www.w3.org/2000/svg" width="80" height="80" viewBox="0 0 80 80">
    <g fill="none" fill-rule="evenodd">
        <path d="M0 0h80v80H0z"/>
        <g fill="#FFF">
            <path d="M40.308 15.748c4.063 0 7.364 3.296 7.364 7.351 0 4.057-3.3 7.352-7.364 7.352-4.063 0-7.363-3.295-7.363-7.352 0-4.055 3.3-7.351 7.363-7.351m0 33.773s2.85-3.212 6.123-7.577c4.429-5.888 9.62-13.86 9.62-18.845 0-8.675-7.053-15.716-15.743-15.716-8.69 0-15.743 7.04-15.743 15.716 0 4.986 5.192 12.957 9.621 18.845a131.962 131.962 0 0 0 6.122 7.577"/>
            <path d="M71.929 44.554c2.126-1.538 3.729-4.32 4.359-7.491-1.929-.404-3.968.316-5.888 1.947-1.487 1.267-2.722 2.895-3.743 4.703a45.452 45.452 0 0 0 2.07-7.994c1.854.316 3.857-.265 5.513-2.197 1.714-1.994 2.65-5.097 2.544-8.387-1.941.04-3.735 1.22-5.222 3.27-1.137 1.575-1.969 3.436-2.56 5.42.227-1.873.363-3.766.353-5.679-.001-.263 1.194-5.121.7-7.869-.538-3.047-2.157-5.623-4.105-7.156-.507 2.43-.57 5.105-.099 7.855.431 2.489 2.072 6.92 2.073 7.177a43.492 43.492 0 0 1-.318 5.26c-.148-1.925-.797-3.726-1.899-5.061-1.502-1.832-3.48-2.477-5.398-2.322.254 2.231.95 4.358 2.264 6.19 1.256 1.741 2.902 2.901 4.745 3.252a44.023 44.023 0 0 1-1.924 7.508c.28-1.91.03-3.81-.772-5.356-1.084-2.1-2.895-3.164-4.827-3.451-.242 2.19-.015 4.396.888 6.466.864 1.967 2.247 3.455 3.989 4.216a44.442 44.442 0 0 1-3.535 6.956c.704-1.824.871-3.758.406-5.46-.617-2.292-2.178-3.735-4.024-4.454-.709 2.067-.957 4.273-.51 6.503.43 2.121 1.473 3.892 3.029 5.032a44.298 44.298 0 0 1-5.009 6.037c1.097-1.638 1.683-3.5 1.595-5.274-.113-2.391-1.342-4.158-3.01-5.279-1.145 1.867-1.87 3.98-1.922 6.278-.042 2.194.596 4.186 1.893 5.659a43.81 43.81 0 0 1-6.412 4.873c1.5-1.383 2.524-3.11 2.841-4.897.43-2.388-.395-4.405-1.795-5.887-1.55 1.585-2.754 3.512-3.34 5.773-.557 2.175-.397 4.308.57 6.064-.903.508-1.828.988-2.774 1.435-.024.012-.04.034-.064.047a2.877 2.877 0 0 0-4.606 0c-.022-.013-.038-.035-.064-.047a44.097 44.097 0 0 1-2.773-1.435c.968-1.756 1.126-3.89.57-6.064-.585-2.261-1.789-4.188-3.34-5.773-1.4 1.482-2.226 3.5-1.796 5.887.317 1.788 1.341 3.514 2.841 4.897a43.81 43.81 0 0 1-6.411-4.873c1.296-1.473 1.935-3.465 1.892-5.659-.051-2.298-.776-4.41-1.922-6.278-1.667 1.121-2.896 2.888-3.01 5.28-.087 1.774.498 3.635 1.595 5.274a44.511 44.511 0 0 1-5.008-6.038c1.557-1.14 2.599-2.91 3.029-5.032.447-2.23.2-4.436-.51-6.503-1.846.719-3.407 2.162-4.025 4.453-.465 1.703-.298 3.638.408 5.462a44.457 44.457 0 0 1-3.537-6.957c1.744-.76 3.125-2.249 3.99-4.216.903-2.07 1.13-4.276.888-6.466-1.932.287-3.744 1.351-4.827 3.451-.802 1.545-1.052 3.447-.772 5.357-.86-2.428-1.5-4.94-1.924-7.509 1.842-.35 3.49-1.511 4.744-3.252 1.315-1.832 2.01-3.959 2.266-6.19-1.92-.155-3.897.49-5.4 2.322-1.1 1.335-1.75 3.136-1.899 5.06a43.492 43.492 0 0 1-.318-5.259c.001-.256 1.643-4.688 2.073-7.177.472-2.75.409-5.424-.098-7.855-1.948 1.533-3.566 4.109-4.105 7.156-.493 2.748.7 7.606.7 7.87a44.998 44.998 0 0 0 .354 5.676c-.593-1.983-1.425-3.843-2.561-5.418-1.486-2.05-3.281-3.23-5.223-3.27-.105 3.29.83 6.393 2.545 8.387 1.655 1.932 3.66 2.513 5.514 2.197a45.371 45.371 0 0 0 2.067 7.991c-1.02-1.807-2.255-3.433-3.74-4.7-1.921-1.63-3.96-2.35-5.889-1.947.63 3.171 2.233 5.953 4.359 7.491 2.064 1.5 4.176 1.606 5.945.868a45.8 45.8 0 0 0 3.851 7.468c-1.427-1.596-3.029-2.956-4.818-3.879-2.246-1.153-4.417-1.386-6.234-.557 1.306 2.938 3.488 5.294 5.919 6.322 2.369 1.005 4.485.63 6.072-.504a45.785 45.785 0 0 0 5.578 6.613c-1.81-1.31-3.743-2.337-5.768-2.857-2.472-.63-4.664-.368-6.28.855 1.928 2.591 4.6 4.425 7.233 4.895 2.567.464 4.581-.38 5.901-1.852a45.305 45.305 0 0 0 7.058 5.292c-2.115-.892-4.272-1.477-6.4-1.54-2.596-.071-4.709.676-6.036 2.245 2.49 2.13 5.57 3.352 8.308 3.231 2.662-.109 4.478-1.385 5.453-3.128a45.508 45.508 0 0 0 2.86 1.48c.034.016.07.013.106.024a2.951 2.951 0 0 0-.051.497c0 1.6 1.303 2.918 2.923 2.918a2.925 2.925 0 0 0 2.924-2.918c0-.17-.024-.334-.052-.497.036-.01.072-.008.107-.025a45.238 45.238 0 0 0 2.86-1.48c.975 1.744 2.79 3.02 5.453 3.13 2.738.12 5.817-1.102 8.307-3.232-1.327-1.569-3.44-2.316-6.036-2.246-2.127.064-4.284.649-6.4 1.542a45.316 45.316 0 0 0 7.058-5.294c1.32 1.473 3.334 2.317 5.901 1.853 2.634-.47 5.306-2.304 7.234-4.895-1.616-1.223-3.809-1.484-6.28-.855-2.025.52-3.96 1.548-5.77 2.859a45.751 45.751 0 0 0 5.579-6.615c1.589 1.133 3.704 1.51 6.073.504 2.431-1.028 4.613-3.384 5.919-6.322-1.817-.829-3.988-.596-6.235.557-1.789.923-3.393 2.284-4.82 3.882a45.878 45.878 0 0 0 3.853-7.47c1.77.737 3.882.632 5.946-.869"/>
        </g>
    </g>
</svg>
