<svg xmlns="http://www.w3.org/2000/svg" width="80" height="80" viewBox="0 0 80 80">
    <g fill="#FFF" fill-rule="evenodd">
        <path d="M40 25.975c-7.732 0-14.02 6.29-14.02 14.021 0 7.73 6.288 14.02 14.02 14.02 7.73 0 14.02-6.29 14.02-14.02 0-7.73-6.29-14.02-14.02-14.02"/>
        <path d="M40 62.187c-12.238 0-22.193-9.954-22.193-22.191 0-12.238 9.955-22.192 22.192-22.192s22.192 9.954 22.192 22.192c0 12.237-9.955 22.191-22.192 22.191m31.136-13.848a1.081 1.081 0 0 0-.156-.901l-2.574-3.701 3.442-2.911a1.085 1.085 0 0 0 0-1.662l-3.44-2.907 2.573-3.702a1.089 1.089 0 0 0-.429-1.605l-4.08-1.919 1.527-4.241a1.089 1.089 0 0 0-.827-1.437l-4.439-.801.377-4.491a1.088 1.088 0 0 0-.315-.859 1.054 1.054 0 0 0-.864-.315l-4.487.379-.799-4.437a1.088 1.088 0 0 0-1.441-.83l-4.24 1.525-1.918-4.077a1.082 1.082 0 0 0-.703-.589 1.092 1.092 0 0 0-.9.156l-3.702 2.573-2.91-3.441c-.18-.212-.49-.339-.83-.339-.34 0-.65.127-.83.341l-2.909 3.44-3.703-2.574a1.072 1.072 0 0 0-.896-.157 1.079 1.079 0 0 0-.707.587l-1.92 4.079-4.24-1.527a1.088 1.088 0 0 0-1.439.83l-.8 4.439-4.49-.379a1.128 1.128 0 0 0-.862.316c-.225.225-.34.539-.313.859l.378 4.489-4.437.801a1.085 1.085 0 0 0-.83 1.44l1.526 4.238-4.078 1.92a1.087 1.087 0 0 0-.43 1.604l2.573 3.703-3.442 2.908a1.086 1.086 0 0 0 0 1.663l3.441 2.908-2.572 3.701a1.083 1.083 0 0 0 .426 1.602l4.083 1.92L12 55.201a1.093 1.093 0 0 0 .833 1.44l4.435.8-.379 4.49a1.09 1.09 0 0 0 1.178 1.173l4.488-.375.8 4.435c.056.316.248.589.527.751.275.16.608.192.908.079l4.243-1.527 1.92 4.079a1.086 1.086 0 0 0 1.606.429l3.7-2.572 2.91 3.441c.413.489 1.245.489 1.66 0l2.91-3.441 3.7 2.573c.263.184.591.239.9.157a1.08 1.08 0 0 0 .703-.586l1.92-4.08 4.24 1.527c.301.107.636.079.916-.083.273-.158.466-.432.524-.748l.796-4.434 4.493.376a1.11 1.11 0 0 0 .858-.314c.23-.227.344-.541.317-.862l-.375-4.493 4.436-.798a1.085 1.085 0 0 0 .83-1.439l-1.527-4.241 4.078-1.918a1.08 1.08 0 0 0 .587-.701"/>
    </g>
</svg>
